<svg width="130" height="22" viewBox="0 0 130 22" fill="none" xmlns="http://www.w3.org/2000/svg">
<path d="M25.3398 19.7721L25.3391 2.22442L30.1401 1.49966L32.9201 1.49984L32.9199 4.5649L28.4827 4.56461L28.4824 9.50736L32.9198 7.27098L32.9196 10.695L28.4821 12.959L28.4821 20.396L25.3398 19.7721Z" fill="white"/>
<path d="M34.4911 4.12319C34.4912 2.43879 35.4284 1.5 37.0269 1.5001L40.5271 1.50032C42.1256 1.50042 43.0902 2.43933 43.0901 4.12373L43.09 4.59315L39.9205 6.24974L39.9206 4.53773L37.633 4.53758L37.6327 9.36988L43.0899 6.55369L43.0892 18.0407C43.0891 19.7251 42.1244 20.6639 40.5259 20.6638L37.0257 20.6636C35.4272 20.6635 34.4902 19.7246 34.4903 18.0402L34.4904 16.2453L37.6324 14.6164L37.6322 17.6262L39.9197 17.6263L39.9201 11.6067L34.4905 14.4505L34.4911 4.12319Z" fill="white"/>
<path d="M53.9093 1.50117L53.9083 17.5996L56.1958 17.5998L56.1968 1.50132L59.3663 1.50152L59.3653 17.9866C59.3651 19.809 58.4832 20.665 56.609 20.6648L54.1561 20.6647C53.0261 20.6646 52.3647 20.0019 52.3648 18.8145C52.3647 20.0019 51.6757 20.6645 50.5457 20.6645L47.8999 20.6643C46.3013 20.6642 45.3643 19.7253 45.3644 18.0409L45.3655 1.50063L48.5074 1.50083L48.5064 17.5993L50.8215 17.5994L50.8225 1.50098L53.9093 1.50117Z" fill="white"/>
<path d="M72.6794 8.3228L72.6796 4.45697L70.1441 4.45681L70.1437 9.56523L72.6794 8.3228ZM75.7109 10.4768L75.7105 18.0152C75.7103 19.8101 74.8008 20.666 72.8991 20.6659L67.1114 20.6655L67.1126 1.50201L73.1484 1.50239C74.7469 1.50249 75.7114 2.4414 75.7113 4.1258L75.7111 8.15732C75.711 9.39991 75.3251 10.1454 74.3605 10.4767L75.7109 10.4768ZM72.6788 17.6837L72.6792 11.5259L70.1435 12.796L70.1432 17.6835L72.6788 17.6837Z" fill="white"/>
<path d="M86.5838 20.6667L83.4419 20.6666L83.4424 12.5483L81.1273 13.7355L81.1268 20.6664L77.9849 20.6662L77.986 4.12595C77.9861 2.44155 78.9232 1.50276 80.5217 1.50286L84.0219 1.50308C85.6204 1.50318 86.585 2.44209 86.5849 4.12649L86.5838 20.6667ZM83.4426 9.17949L83.4429 4.54049L81.1278 4.54034L81.1275 10.3115L83.4426 9.17949Z" fill="white"/>
<path d="M94.37 9.23541L94.3703 4.54118L92.0552 4.54103L92.0548 10.395L94.37 9.23541ZM97.5118 11.0029L95.1966 12.1901L98.779 20.6675L95.4993 20.6673L92.5232 13.5706L92.0546 13.819L92.0542 20.6671L88.9123 20.6669L88.9135 1.50339L94.9493 1.50378C96.5478 1.50388 97.5124 2.44279 97.5122 4.12719L97.5118 11.0029Z" fill="white"/>
<path d="M105.327 8.32488L105.327 4.45904L102.792 4.45888L102.791 9.56731L105.327 8.32488ZM108.358 10.4789L108.358 18.0173C108.358 19.8121 107.448 20.6681 105.547 20.668L99.7589 20.6676L99.7601 1.50408L105.796 1.50447C107.394 1.50457 108.359 2.44347 108.359 4.12787L108.359 8.15939C108.359 9.40198 107.973 10.1475 107.008 10.4788L108.358 10.4789ZM105.326 17.6857L105.327 11.528L102.791 12.798L102.791 17.6856L105.326 17.6857Z" fill="white"/>
<path d="M118.212 20.6688L110.632 20.6683L110.634 1.50477L118.213 1.50525L118.213 4.57031L113.775 4.57003L113.775 9.51278L118.212 7.27639L118.212 10.7004L113.775 12.9644L113.775 17.6034L118.212 17.6037L118.212 20.6688Z" fill="white"/>
<path d="M125.591 9.23739L125.591 4.54316L123.276 4.54302L123.276 10.397L125.591 9.23739ZM128.733 11.0048L126.418 12.1921L130 20.6695L126.72 20.6693L123.744 13.5725L123.276 13.821L123.275 20.6691L120.133 20.6689L120.135 1.50538L126.17 1.50576C127.769 1.50586 128.733 2.44477 128.733 4.12917L128.733 11.0048Z" fill="white"/>
<path d="M25.3398 19.7721L25.3391 2.22442L30.1401 1.49966L32.9201 1.49984L32.9199 4.5649L28.4827 4.56461L28.4824 9.50736L32.9198 7.27098L32.9196 10.695L28.4821 12.959L28.4821 20.396L25.3398 19.7721Z" fill="#8162FF"/>
<path d="M34.4911 4.12319C34.4912 2.43879 35.4284 1.5 37.0269 1.5001L40.5271 1.50032C42.1256 1.50042 43.0902 2.43933 43.0901 4.12373L43.09 4.59315L39.9205 6.24974L39.9206 4.53773L37.633 4.53758L37.6327 9.36988L43.0899 6.55369L43.0892 18.0407C43.0891 19.7251 42.1244 20.6639 40.5259 20.6638L37.0257 20.6636C35.4272 20.6635 34.4902 19.7246 34.4903 18.0402L34.4904 16.2453L37.6324 14.6164L37.6322 17.6262L39.9197 17.6263L39.9201 11.6067L34.4905 14.4505L34.4911 4.12319Z" fill="#8162FF"/>
<path d="M53.9093 1.50117L53.9083 17.5996L56.1958 17.5998L56.1968 1.50132L59.3663 1.50152L59.3653 17.9866C59.3651 19.809 58.4832 20.665 56.609 20.6648L54.1561 20.6647C53.0261 20.6646 52.3647 20.0019 52.3648 18.8145C52.3647 20.0019 51.6757 20.6645 50.5457 20.6645L47.8999 20.6643C46.3013 20.6642 45.3643 19.7253 45.3644 18.0409L45.3655 1.50063L48.5074 1.50083L48.5064 17.5993L50.8215 17.5994L50.8225 1.50098L53.9093 1.50117Z" fill="#8162FF"/>
<path fill-rule="evenodd" clip-rule="evenodd" d="M1.8165 4.93415C1.81644 5.76273 2.1459 6.55739 2.73238 7.14331C3.31886 7.72924 4.11432 8.05844 4.94379 8.05849C5.77325 8.05855 6.56876 7.72945 7.15531 7.14359C7.74187 6.55774 8.07142 5.76313 8.07147 4.93455C8.07153 4.10598 7.74207 3.31132 7.15559 2.72539C6.56911 2.13947 5.77364 1.81027 4.94418 1.81021C4.11472 1.81016 3.31921 2.13926 2.73266 2.72511C2.1461 3.31096 1.81655 4.10558 1.8165 4.93415ZM4.94367 9.87251C3.88525 9.87232 2.85484 9.5328 2.00403 8.9039C1.15322 8.275 0.526938 7.38992 0.217326 6.37888C-0.0922855 5.36784 -0.0688788 4.28423 0.284103 3.28748C0.637084 2.29073 1.301 1.43346 2.17818 0.841798C3.05535 0.25014 4.09947 -0.0446657 5.15691 0.000754538C6.21435 0.0461748 7.22928 0.429423 8.05237 1.09411C8.87547 1.7588 9.46327 2.66984 9.7293 3.69318C9.99532 4.71652 9.92553 5.79814 9.53018 6.7789L11.4752 8.07705C11.4609 8.12249 11.4475 8.16818 11.4348 8.2141L11.124 9.32265L10.4117 9.79828L8.40619 8.45981C7.5143 9.3325 6.29152 9.8726 4.94367 9.87251ZM1.81573 17.0578C1.81578 16.2293 2.14533 15.4346 2.73189 14.8488C3.31844 14.2629 4.11395 13.9338 4.94341 13.9339C5.77287 13.9339 6.56834 14.2631 7.15482 14.8491C7.7413 15.435 8.07076 16.2297 8.0707 17.0582C8.07065 17.8868 7.7411 18.6814 7.15454 19.2673C6.56799 19.8531 5.77248 20.1822 4.94302 20.1822C4.11356 20.1821 3.31809 19.8529 2.73161 19.267C2.14513 18.6811 1.81567 17.8864 1.81573 17.0578ZM4.94353 12.1199C3.88604 12.1199 2.85644 12.4587 2.00595 13.0865C1.15546 13.7143 0.528912 14.5979 0.218332 15.6077C-0.0922474 16.6175 -0.0704886 17.7001 0.280412 18.6966C0.631314 19.6931 1.29286 20.551 2.16789 21.1442C3.04292 21.7373 4.0853 22.0346 5.14194 21.9922C6.19858 21.9499 7.21378 21.5702 8.03842 20.9089C8.86307 20.2476 9.45369 19.3396 9.72355 18.3182C9.99341 17.2968 9.92827 16.2159 9.53771 15.2342L30.1659 1.49644L28.247 1.65448C25.541 1.93874 22.9205 2.76678 20.5431 4.0888L14.3384 7.53504C14.1054 7.66505 13.9005 7.83994 13.7356 8.0496C13.5708 8.25925 13.4492 8.49949 13.3779 8.75642L12.8673 10.5825L8.42201 13.5512C7.49765 12.6333 6.24689 12.1186 4.94353 12.1199ZM14.3137 14.4686L14.338 14.4827L20.5423 17.9298C22.9195 19.2521 25.5399 20.0804 28.2458 20.3651L27.9687 19.003L25.3466 17.3579L17.6754 12.2215L14.3137 14.4686Z" fill="#8162FF"/>
</svg>
